<svg width="36" height="36" viewBox="0 0 36 36" fill="none" xmlns="http://www.w3.org/2000/svg">
<g clip-path="url(#clip0_444_1332)">
<path fill-rule="evenodd" clip-rule="evenodd" d="M18 34.5C27.1127 34.5 34.5 27.1127 34.5 18C34.5 8.8873 27.1127 1.5 18 1.5C8.8873 1.5 1.5 8.8873 1.5 18C1.5 27.1127 8.8873 34.5 18 34.5ZM18 36C27.9411 36 36 27.9411 36 18C36 8.05887 27.9411 0 18 0C8.05887 0 0 8.05887 0 18C0 27.9411 8.05887 36 18 36Z" fill="#ED5500"/>
<path d="M18.635 26.8481C17.7602 26.7606 16.798 26.8481 15.9232 26.4982C14.5236 25.8859 13.124 25.8859 11.7243 26.7606C11.3744 26.9356 10.9371 27.198 10.5872 26.7606C10.3247 26.4982 10.4997 26.0608 10.5872 25.7984C11.3744 24.0489 10.9371 22.5618 10.2372 20.8122C8.83762 17.4006 9.01257 14.0765 11.7243 11.2773C14.4361 8.5655 17.8477 8.12812 21.4343 9.09036C22.5715 9.44027 23.5337 10.1401 24.4085 11.0148C28.6074 15.4761 28.7823 22.9992 22.309 26.1483C21.0844 26.7607 19.8597 26.7606 18.635 26.8481ZM11.7243 25.7109C13.5614 24.3113 15.3109 25.2735 17.0604 25.536C19.5972 25.8859 22.0466 25.7984 24.146 23.8739C26.333 21.7745 26.9453 18.1879 25.8956 15.3012C24.5834 11.7146 21.6092 9.79017 18.2851 9.79017C14.4361 9.79017 10.4122 12.9393 10.5872 16.7008C10.6746 18.1879 10.7621 19.675 11.5494 20.9872C12.4242 22.3868 12.5991 23.7864 11.7243 25.7109Z" fill="#ED5500"/>
<path d="M19.16 19.7627C19.2474 19.6753 19.4224 19.5878 19.5099 19.5003C19.8598 18.9755 20.0347 18.2756 20.9095 18.4506C21.6968 18.713 22.3966 19.3253 22.659 20.1126C22.9214 20.8999 22.3966 21.4248 21.8717 21.8622C20.7345 22.7369 19.5973 22.4745 18.5476 21.9497C16.1857 20.6375 14.8736 18.4506 14.0863 15.9138C13.8239 14.9515 14.1738 14.1642 15.136 13.6394C15.7484 13.2895 16.2732 13.2895 16.6231 13.8143C17.148 14.5141 18.2852 15.1265 17.3229 16.2637C16.8856 16.7885 17.0605 17.3134 17.4104 17.7508C17.8478 18.5381 18.2852 19.3254 19.16 19.7627Z" fill="#ED5500"/>
</g>
<defs>
<clipPath id="clip0_444_1332">
<rect width="36" height="36" fill="white"/>
</clipPath>
</defs>
</svg>
