<svg width="32" height="32" viewBox="0 0 32 32" fill="none" xmlns="http://www.w3.org/2000/svg">
<path d="M29.5385 7.68H23.3846C23.3846 5.64314 22.6066 3.6897 21.2217 2.24942C19.8368 0.80914 17.9585 0 16 0C14.0415 0 12.1632 0.80914 10.7783 2.24942C9.3934 3.6897 8.61539 5.64314 8.61539 7.68H2.46154C1.8087 7.68 1.1826 7.94971 0.720968 8.42981C0.25934 8.9099 0 9.56105 0 10.24V29.44C0 30.119 0.25934 30.7701 0.720968 31.2502C1.1826 31.7303 1.8087 32 2.46154 32H29.5385C30.1913 32 30.8174 31.7303 31.279 31.2502C31.7407 30.7701 32 30.119 32 29.44V10.24C32 9.56105 31.7407 8.9099 31.279 8.42981C30.8174 7.94971 30.1913 7.68 29.5385 7.68ZM16 2.56C17.3057 2.56 18.5579 3.09943 19.4811 4.05961C20.4044 5.0198 20.9231 6.32209 20.9231 7.68H11.0769C11.0769 6.32209 11.5956 5.0198 12.5189 4.05961C13.4421 3.09943 14.6943 2.56 16 2.56ZM29.5385 29.44H2.46154V10.24H8.61539V12.8C8.61539 13.1395 8.74506 13.465 8.97587 13.7051C9.20668 13.9451 9.51973 14.08 9.84615 14.08C10.1726 14.08 10.4856 13.9451 10.7164 13.7051C10.9473 13.465 11.0769 13.1395 11.0769 12.8V10.24H20.9231V12.8C20.9231 13.1395 21.0527 13.465 21.2836 13.7051C21.5144 13.9451 21.8274 14.08 22.1538 14.08C22.4803 14.08 22.7933 13.9451 23.0241 13.7051C23.2549 13.465 23.3846 13.1395 23.3846 12.8V10.24H29.5385V29.44Z" fill="#3A4757"/>
</svg>
