<svg width="16" height="14" viewBox="0 0 16 14" fill="none" xmlns="http://www.w3.org/2000/svg">
<path d="M14.5 13H1.5C0.67 13 0 12.33 0 11.5V2.5C0 1.67 0.67 1 1.5 1H14.5C15.33 1 16 1.67 16 2.5V11.5C16 12.33 15.33 13 14.5 13ZM1.5 2C1.22 2 1 2.22 1 2.5V11.5C1 11.78 1.22 12 1.5 12H14.5C14.78 12 15 11.78 15 11.5V2.5C15 2.22 14.78 2 14.5 2H1.5Z" fill="#98989A"/>
<path d="M7.99992 8.95963C7.29992 8.95963 6.65992 8.67963 6.17992 8.16963L0.929923 2.58963C0.739923 2.38963 0.749923 2.06963 0.949923 1.87963C1.14992 1.68963 1.46992 1.69963 1.65992 1.89963L6.90992 7.47963C7.47992 8.08963 8.51992 8.08963 9.08992 7.47963L14.3399 1.90963C14.5299 1.70963 14.8499 1.69963 15.0499 1.88963C15.2499 2.07963 15.2599 2.39963 15.0699 2.59963L9.81992 8.17963C9.33992 8.68963 8.69992 8.96963 7.99992 8.96963V8.95963Z" fill="#98989A"/>
</svg>
