<svg width="101" height="100" viewBox="0 0 101 100" fill="none" xmlns="http://www.w3.org/2000/svg">
<path d="M85.2074 68.7516L66.4514 49.9976L85.2014 31.2456C85.5742 30.8725 85.7836 30.3666 85.7836 29.8391C85.7836 29.3117 85.5742 28.8058 85.2014 28.4326L72.0664 15.2946C71.6932 14.9215 71.1871 14.7119 70.6594 14.7119C70.1317 14.7119 69.6255 14.9215 69.2524 15.2946L50.4994 34.0466L31.7494 15.2946C31.0034 14.5476 29.6824 14.5476 28.9354 15.2946L15.7974 28.4306C15.4243 28.8038 15.2147 29.3099 15.2147 29.8376C15.2147 30.3653 15.4243 30.8714 15.7974 31.2446L34.5504 49.9976L15.7944 68.7526C15.422 69.1262 15.2129 69.6322 15.2129 70.1596C15.2129 70.6871 15.422 71.1931 15.7944 71.5666L28.9304 84.7036C29.3036 85.0767 29.8097 85.2863 30.3374 85.2863C30.8651 85.2863 31.3712 85.0767 31.7444 84.7036L50.4994 65.9486L69.2554 84.7026C69.6444 85.0906 70.1514 85.2856 70.6624 85.2856C71.1734 85.2856 71.6814 85.0906 72.0704 84.7026L85.2084 71.5656C85.5813 71.1923 85.7908 70.6861 85.7906 70.1584C85.7904 69.6307 85.5806 69.1247 85.2074 68.7516Z" fill="#FF0000"/>
</svg>
