<svg width="98" height="46" viewBox="0 0 98 46" fill="none" xmlns="http://www.w3.org/2000/svg">
<path d="M2.1908 34.278C2.70761 34.9477 3.36186 35.4192 4.15355 35.6931C4.94422 35.9669 5.84246 36.1038 6.84623 36.1038C8.06311 36.1038 9.4025 35.9597 10.8629 35.6704C12.3232 35.3811 13.8299 35.062 15.3814 34.7119C16.9334 34.3624 18.5003 34.0428 20.0826 33.7535C21.6645 33.4642 23.1706 33.3195 24.6011 33.3195V36.9254H0V0H3.74278C3.74278 2.16094 3.6285 4.41247 3.40047 6.75512C3.17243 9.09879 2.91351 11.4265 2.62474 13.7388C2.33544 16.0516 2.05439 18.2882 1.78054 20.4481C1.50669 22.609 1.30851 24.6017 1.18703 26.427C1.06503 28.2528 1.07275 29.8429 1.20968 31.1967C1.34609 32.5515 1.67295 33.5785 2.1908 34.278Z" fill="#ED5500"/>
<path d="M31.5396 0C30.4442 2.64738 29.6679 5.11202 29.2113 7.30282C28.7547 9.49361 28.519 11.5557 28.5041 13.4876C28.4881 15.4205 28.6255 17.2839 28.9148 19.0789C29.2036 20.8748 29.5233 22.6924 29.8733 24.5332C30.2228 26.3745 30.5502 28.3063 30.8544 30.3298C31.1581 32.3539 31.311 34.5673 31.311 36.9712H27.5682V0" fill="#ED5500"/>
<path d="M40.0288 36.9712H36.286V0H41.2153C41.641 0.608954 42.0518 1.5978 42.4476 2.96704C42.843 4.33629 43.2465 5.92688 43.6573 7.73676C44.0681 9.54766 44.5169 11.5104 45.0039 13.625C45.4903 15.7402 46.038 17.8548 46.647 19.9694C47.2554 22.0845 47.9323 24.1157 48.6782 26.063C49.4236 28.0104 50.2755 29.7374 51.234 31.2435C52.1924 32.7497 53.2724 33.9522 54.4749 34.8494C55.6763 35.7476 57.0229 36.196 58.5141 36.196C59.9745 36.196 61.4961 35.7554 63.0785 34.8726C63.9607 34.3861 64.6454 33.5337 65.1323 32.3163C65.6188 31.0994 65.9606 29.6617 66.1593 28.0026C66.3569 26.3446 66.4331 24.5265 66.3873 22.5483C66.342 20.5706 66.2277 18.5775 66.045 16.5689C65.8628 14.5609 65.6342 12.6058 65.3604 10.7038C65.0865 8.8023 64.8194 7.09074 64.5615 5.56913C64.3025 4.04803 64.0822 2.79254 63.8995 1.8037C63.7173 0.81537 63.6256 0.214137 63.6256 0.00102894H67.3684V36.9722H52.7165C51.7122 36.9722 50.8371 36.4858 50.0922 35.5119C49.3464 34.5385 48.6772 33.2603 48.0842 31.678C47.4907 30.0961 46.9728 28.293 46.5322 26.2689C46.0905 24.2454 45.6798 22.1689 45.2999 20.0389C44.919 17.9093 44.554 15.8323 44.2045 13.8083C43.8544 11.7848 43.4812 9.98211 43.0864 8.39976C42.6906 6.81792 42.2572 5.53978 41.7856 4.56587C41.3136 3.59247 40.7587 3.105 40.1194 3.105C39.6927 3.105 39.2067 3.37885 38.659 3.92655C38.0804 4.50513 37.7078 5.43272 37.541 6.71085C37.3732 7.98899 37.3356 9.50288 37.4267 11.2525C37.5178 13.0027 37.7078 14.9268 37.9971 17.0265C38.2858 19.1262 38.5823 21.3021 38.8871 23.5536C39.1908 25.8057 39.4579 28.0721 39.686 30.3546C39.9145 32.6349 40.0288 34.8411 40.0288 36.9712Z" fill="#ED5500"/>
<path d="M80.7403 34.4149C81.5495 34.6589 82.3098 34.9328 83.0212 35.2365C83.7326 35.5412 84.4368 35.8151 85.1348 36.058C85.8317 36.302 86.6553 36.4235 87.604 36.4235C88.6639 36.4235 89.9616 36.2258 91.4961 35.8305C93.0301 35.4352 94.9275 34.6136 97.1877 33.3659C97.2716 33.3051 97.32 33.3962 97.3344 33.6397C97.3483 33.8837 97.3411 34.1951 97.3139 34.5755C97.2855 34.9565 97.2572 35.3595 97.2299 35.7852C97.2016 36.2119 97.1877 36.6068 97.1877 36.9722H74.4207V0H97.1877V4.01663C96.518 3.59092 95.6877 3.17243 94.6973 2.76166C93.7064 2.35088 92.626 1.98541 91.4539 1.66626C90.2818 1.34711 89.0747 1.08098 87.8336 0.867874C86.592 0.655281 85.3988 0.548211 84.255 0.548211C82.7206 0.548211 81.3673 0.776248 80.1957 1.23284C79.0236 1.68942 78.2422 2.4806 77.852 3.60637C76.9589 6.25375 76.2964 8.40697 75.864 10.065C75.4311 11.724 75.2221 13.0089 75.2365 13.922C75.2499 14.8347 75.4805 15.4591 75.9268 15.7937C76.3726 16.1288 77.015 16.2956 77.852 16.2956H78.4378L94.0905 15.3371V18.943C92.9745 18.0607 91.9208 17.4219 90.9309 17.026C89.94 16.6307 88.9568 16.4325 87.9803 16.4325C86.5009 16.4325 84.9597 16.8201 83.3558 17.5964C81.7513 18.3721 79.9167 19.3841 77.852 20.6314C77.1823 21.0272 76.6732 21.5975 76.3242 22.3429C75.9752 23.0888 75.7595 23.9026 75.6756 24.7849C75.5917 25.6677 75.5984 26.5876 75.6962 27.546C75.7935 28.5045 75.9402 29.4105 76.1358 30.2619C76.1379 30.2706 76.1399 30.2789 76.1415 30.2876C76.4622 31.6857 77.3759 32.8326 78.5891 33.404L80.7403 34.4149Z" fill="#ED5500"/>
<path d="M0 39.3154H2.18565C2.64327 39.3154 3.02882 39.4271 3.34179 39.651C3.65527 39.875 3.81176 40.2034 3.81176 40.6358C3.81176 40.9441 3.71859 41.2087 3.53225 41.43C3.34591 41.6514 3.09831 41.7893 2.78997 41.8439C3.14773 41.8841 3.43753 42.0205 3.65888 42.2542C3.88022 42.4879 3.99089 42.7864 3.99089 43.1493C3.99089 43.6615 3.78448 44.0543 3.37164 44.3281C3.06845 44.5273 2.62782 44.6262 2.0513 44.6262H0V39.3154ZM0.320693 39.5913V41.7399H1.9921C2.99175 41.7399 3.49158 41.3847 3.49158 40.6728C3.49158 40.295 3.36135 40.0201 3.09985 39.8487C2.83887 39.6768 2.50428 39.5913 2.0966 39.5913H0.320693ZM0.320693 42.0086V44.3436H2.02916C3.12302 44.3436 3.6702 43.9436 3.6702 43.1426C3.6702 42.387 3.13795 42.0091 2.07395 42.0091H0.320693V42.0086Z" fill="#ED5500"/>
<path d="M7.51236 40.8081L5.86361 45.0229C5.78897 45.217 5.73286 45.3539 5.6958 45.4332C5.65873 45.5125 5.60005 45.6072 5.52027 45.7168C5.44099 45.826 5.34525 45.9006 5.23303 45.9402C5.12081 45.9799 4.98338 45.9999 4.81917 45.9999C4.71468 45.9999 4.61739 45.9948 4.52833 45.985V45.7168C4.60761 45.7312 4.68997 45.739 4.77439 45.739C4.95352 45.739 5.09508 45.7004 5.19957 45.6231C5.30407 45.5459 5.39363 45.4178 5.46776 45.2386C5.58718 44.9653 5.67418 44.7589 5.72926 44.6199L4.11035 40.8076H4.44597L5.70661 43.7989C5.74624 43.8936 5.8039 44.0526 5.87802 44.2765C5.97222 43.9981 6.03193 43.8267 6.05716 43.7618L7.19116 40.8076H7.51236V40.8081Z" fill="#ED5500"/>
<path d="M13.2565 44.3358V44.6267H9.89929V39.3154H10.2277V44.3358H13.2565Z" fill="#ED5500"/>
<path d="M23.1125 44.3358V44.6267H19.7552V39.3154H20.0837V44.3358H23.1125Z" fill="#ED5500"/>
<path d="M13.8906 39.3154V40.069H13.592V39.3154H13.8906ZM13.8906 40.8077V44.6272H13.592V40.8077H13.8906Z" fill="#ED5500"/>
<path d="M15.0838 39.3154V44.6267H14.7853V39.3154H15.0838Z" fill="#ED5500"/>
<path d="M16.2776 39.3154V40.069H15.979V39.3154H16.2776ZM16.2776 40.8077V44.6272H15.979V40.8077H16.2776Z" fill="#ED5500"/>
<path d="M27.246 44.3594V44.5982C27.1616 44.6281 27.0596 44.643 26.9402 44.643C26.7709 44.643 26.6556 44.5967 26.5933 44.505C26.531 44.4129 26.5001 44.2451 26.5001 44.0016V43.8153C26.3359 44.1339 26.1372 44.3661 25.903 44.5128C25.6693 44.6595 25.3707 44.7331 25.0078 44.7331C24.6099 44.7331 24.3 44.6384 24.0792 44.4495C23.8579 44.2605 23.7472 43.9996 23.7472 43.6665C23.7472 42.9654 24.2347 42.5747 25.2091 42.4949C25.7213 42.4553 26.0394 42.4218 26.164 42.394C26.288 42.3668 26.375 42.3132 26.4249 42.234C26.4594 42.1789 26.4769 42.0476 26.4769 41.8386C26.4769 41.5498 26.3848 41.3311 26.201 41.1818C26.0173 41.0325 25.7486 40.9579 25.3954 40.9579C24.684 40.9579 24.299 41.2986 24.2388 41.9797H23.9551C23.9799 41.5668 24.1194 41.2513 24.3726 41.0325C24.6264 40.8137 24.9769 40.7041 25.4243 40.7041C25.9364 40.7041 26.3143 40.841 26.5583 41.1144C26.6278 41.1936 26.6803 41.2894 26.7148 41.4011C26.7492 41.5133 26.7683 41.6039 26.7709 41.6739C26.7734 41.7434 26.7745 41.8525 26.7745 42.0018V43.979C26.7745 44.0536 26.7755 44.1082 26.7781 44.1432C26.7806 44.1782 26.7904 44.2178 26.8079 44.2621C26.8254 44.3074 26.8537 44.3393 26.8939 44.3594C26.9335 44.3789 26.986 44.3892 27.0504 44.3892C27.1018 44.3892 27.1662 44.3789 27.246 44.3594ZM26.4852 42.4646C26.4105 42.5289 26.3235 42.5763 26.2237 42.6061C26.0698 42.6555 25.7959 42.7008 25.4032 42.7405C25.0104 42.7806 24.7144 42.845 24.5157 42.9345C24.2172 43.0689 24.0684 43.3026 24.0684 43.6356C24.0684 43.8945 24.158 44.0979 24.3366 44.2477C24.5157 44.397 24.7566 44.4711 25.0603 44.4711C25.468 44.4711 25.8072 44.3444 26.0785 44.0907C26.3498 43.8369 26.4852 43.5188 26.4852 43.1358V42.4646Z" fill="#ED5500"/>
<path d="M27.9177 40.8086V41.5843C28.0222 41.3208 28.1797 41.1082 28.3913 40.9465C28.6028 40.7849 28.8602 40.7041 29.1639 40.7041C29.7456 40.7041 30.1162 40.9774 30.2753 41.5246C30.5337 40.9774 30.9465 40.7041 31.5138 40.7041C31.8967 40.7041 32.1938 40.8173 32.4053 41.0433C32.6169 41.2698 32.7224 41.5668 32.7224 41.9349V44.6281H32.4238V42.0471C32.4238 41.3357 32.1006 40.98 31.4541 40.98C31.1256 40.98 30.8647 41.0819 30.6706 41.2858C30.4415 41.5195 30.3273 41.8505 30.3273 42.2782V44.6281H30.0287V42.1063C30.0287 41.8082 29.9916 41.5843 29.917 41.4351C29.7729 41.1319 29.5016 40.98 29.1037 40.98C28.7408 40.98 28.4546 41.1118 28.2456 41.3753C28.0366 41.6389 27.9321 41.9997 27.9321 42.4568V44.6281H27.6335V40.8086H27.9177Z" fill="#ED5500"/>
<path d="M33.8034 39.3154V41.7101C34.0572 41.0239 34.5421 40.6811 35.2581 40.6811C35.7755 40.6811 36.1857 40.8638 36.4889 41.2293C36.7921 41.5948 36.944 42.0884 36.944 42.7102C36.944 43.3315 36.7921 43.8267 36.4889 44.1948C36.1857 44.5628 35.7755 44.7471 35.2581 44.7471C34.5169 44.7471 34.0274 44.4017 33.7885 43.7104V44.6277H33.5049V39.3165H33.8034V39.3154ZM35.2061 40.9415C34.7835 40.9415 34.4438 41.1021 34.188 41.4228C33.9316 41.7435 33.8034 42.1697 33.8034 42.702C33.8034 43.244 33.9326 43.678 34.1916 44.0038C34.45 44.3297 34.7959 44.4928 35.2283 44.4928C35.656 44.4928 35.9978 44.3333 36.2542 44.0151C36.5105 43.6965 36.6382 43.2667 36.6382 42.7241C36.6433 42.1723 36.5162 41.7368 36.2578 41.4187C35.9989 41.1011 35.6488 40.9415 35.2061 40.9415Z" fill="#ED5500"/>
<path d="M40.7789 43.3299C40.7089 43.7576 40.5297 44.1025 40.2415 44.363C39.9527 44.6245 39.5872 44.7547 39.145 44.7547C38.6179 44.7547 38.1963 44.5735 37.8808 44.2101C37.5647 43.8472 37.4072 43.3623 37.4072 42.7554C37.4072 42.1485 37.5673 41.6549 37.8885 41.2745C38.2092 40.894 38.6282 40.7041 39.1456 40.7041C39.683 40.7041 40.0953 40.893 40.3841 41.2708C40.6728 41.6492 40.817 42.1166 40.817 42.6736V42.7781H37.7212C37.7212 43.2604 37.8417 43.6686 38.0831 44.0016C38.324 44.3347 38.6812 44.5014 39.1538 44.5014C39.5018 44.5014 39.7916 44.3995 40.0227 44.1957C40.2538 43.9918 40.4067 43.7031 40.4813 43.3304H40.7789V43.3299ZM40.5102 42.5165C40.5102 42.0939 40.3918 41.731 40.156 41.4273C39.9197 41.1241 39.5826 40.9723 39.145 40.9723C38.7075 40.9723 38.3719 41.1164 38.1382 41.4052C37.9045 41.6935 37.765 42.0641 37.7207 42.5165H40.5102Z" fill="#ED5500"/>
<path d="M43.1658 40.7783V41.0841H43.0541C42.6114 41.0841 42.2608 41.2555 42.0019 41.5988C41.8629 41.7826 41.7744 41.9808 41.7373 42.1918C41.6998 42.4034 41.6812 42.6654 41.6812 42.9789V44.6271H41.3832V40.8077H41.674V41.8145C41.813 41.4465 41.9993 41.1819 42.2336 41.0203C42.4673 40.8597 42.7782 40.7783 43.1658 40.7783Z" fill="#ED5500"/>
</svg>
