<svg width="19" height="20" viewBox="0 0 19 20" fill="none" xmlns="http://www.w3.org/2000/svg">
<path d="M6.94112 2.2356C7.75694 2.12319 8.44291 2.62233 8.7675 3.2711L9.56589 4.8675C10.0088 5.75337 9.75431 6.79283 9.08298 7.44675C8.68635 7.83269 8.28775 8.27365 8.05658 8.66275C8.0412 8.69046 8.03642 8.72282 8.04312 8.75379C8.25687 9.912 9.04181 11.0564 9.74204 11.8769C9.77735 11.9159 9.82331 11.9437 9.87424 11.9569C9.92518 11.97 9.97885 11.968 10.0286 11.9509L11.6021 11.4593C12.0259 11.3268 12.481 11.3336 12.9007 11.4786C13.3205 11.6237 13.6827 11.8993 13.9343 12.2652L15.0731 13.9218C15.3819 14.3711 15.5382 14.9806 15.3015 15.5669C15.0901 16.0906 14.6812 16.8458 13.9375 17.3481C13.1656 17.869 12.1083 18.067 10.7249 17.5927C9.17916 17.0623 7.71893 15.7323 6.50808 14.0314C5.2901 12.3199 4.28746 10.182 3.67946 7.95262C3.10471 5.84798 3.45146 4.4309 4.26766 3.5185C5.05498 2.63817 6.1831 2.33971 6.94112 2.2356ZM7.88202 3.71365C7.70112 3.35225 7.37852 3.17373 7.07571 3.21529C6.40239 3.30792 5.55927 3.55848 5.0055 4.17796C4.48062 4.76498 4.11725 5.7989 4.63341 7.69217C5.21331 9.817 6.16806 11.8476 7.314 13.4575C8.46706 15.0776 9.77727 16.2216 11.0455 16.6566C12.1756 17.0441 12.902 16.8525 13.3833 16.528C13.8924 16.184 14.2055 15.6373 14.3836 15.1964C14.4651 14.9945 14.4299 14.7332 14.2573 14.4823L13.1185 12.8261C12.9867 12.6345 12.797 12.49 12.5772 12.414C12.3574 12.338 12.119 12.3344 11.897 12.4038L10.3235 12.8954C9.85327 13.0422 9.32364 12.9112 8.98916 12.5194C8.26043 11.6655 7.33181 10.3561 7.06937 8.9331C7.01924 8.66641 7.06763 8.39058 7.20554 8.15687C7.50558 7.65258 7.98058 7.1384 8.39185 6.73781C8.79362 6.34673 8.90762 5.76485 8.68041 5.31004L7.88202 3.71365Z" fill="#98989A"/>
</svg>
